<?xml version="1.0" standalone="no"?>
<!DOCTYPE svg PUBLIC "-//W3C//DTD SVG 20010904//EN"
 "http://www.w3.org/TR/2001/REC-SVG-20010904/DTD/svg10.dtd">
<svg version="1.0" xmlns="http://www.w3.org/2000/svg"
 width="502.000000pt" height="502.000000pt" viewBox="0 0 502.000000 502.000000"
 preserveAspectRatio="xMidYMid meet">
<metadata>
Created by potrace 1.11, written by Peter Selinger 2001-2013
</metadata>
<g transform="translate(0.000000,502.000000) scale(0.100000,-0.100000)"
fill="#000000" stroke="none">
<path d="M1367 4213 c-1 -1 -142 -4 -312 -6 -171 -3 -310 -6 -311 -6 -1 -1 0
-85 2 -188 1 -103 6 -390 9 -638 3 -247 8 -576 10 -730 14 -949 15 -1136 8
-1132 -5 3 -7 -36 -5 -86 2 -51 4 -179 5 -284 l2 -193 65 -31 c36 -17 88 -40
115 -51 81 -31 105 -43 105 -49 0 -3 10 -6 23 -5 12 1 25 -2 28 -6 3 -5 14
-10 25 -12 10 -3 34 -12 52 -21 18 -9 38 -18 45 -19 7 -1 30 -10 52 -20 22
-10 48 -19 59 -21 10 -3 23 -8 30 -14 6 -5 20 -11 31 -13 11 -1 22 -5 25 -8 9
-10 145 -65 153 -62 4 1 7 -3 7 -9 0 -5 4 -8 9 -4 5 3 12 1 16 -5 3 -5 15 -10
26 -10 10 0 19 -5 19 -12 0 -6 3 -8 7 -5 3 4 12 2 20 -4 7 -6 13 -9 13 -5 0 3
22 -5 49 -18 27 -14 51 -22 55 -19 3 4 6 1 6 -6 0 -7 4 -10 9 -6 5 3 12 1 16
-5 4 -6 11 -8 16 -5 5 4 9 1 9 -4 0 -6 6 -11 14 -11 8 0 27 -5 43 -12 15 -6
31 -11 36 -10 4 1 7 -3 7 -8 0 -6 8 -10 18 -10 10 0 23 -5 30 -12 7 -7 12 -9
12 -4 0 4 12 1 28 -7 43 -23 86 -41 95 -39 4 1 7 -3 7 -9 0 -6 6 -9 12 -7 7 3
19 -1 26 -8 7 -7 19 -11 27 -8 8 4 17 0 20 -8 3 -7 18 -15 33 -16 15 -1 29 -7
30 -12 2 -6 8 -10 13 -10 5 0 28 -8 52 -19 119 -52 193 -84 203 -85 7 -1 18
-7 26 -14 8 -6 18 -9 21 -5 4 3 7 0 7 -7 0 -7 3 -11 6 -7 3 3 35 -8 70 -23 35
-16 64 -26 64 -22 0 4 4 1 8 -5 4 -7 17 -14 27 -16 11 -2 29 -8 40 -14 11 -6
36 -14 55 -18 19 -4 41 -12 48 -17 6 -6 12 -8 12 -5 0 4 17 0 39 -7 21 -8 59
-13 84 -13 25 1 43 -1 40 -6 -2 -4 1 -7 6 -7 6 0 11 5 11 11 0 5 4 8 8 5 4 -2
7 19 6 47 -2 29 -6 138 -9 242 -4 105 -9 240 -11 300 -2 61 -6 164 -8 230 -2
66 -6 138 -10 160 -10 65 -22 943 -13 952 3 2 99 6 214 8 114 1 224 5 243 9
19 3 53 8 75 11 343 47 607 309 686 680 14 68 18 309 6 400 -32 240 -190 462
-402 568 -78 38 -138 56 -260 79 -99 18 -932 15 -951 -4 -4 -4 -6 -38 -5 -75
1 -38 4 -171 6 -298 3 -126 7 -313 10 -415 3 -102 8 -257 10 -345 2 -88 7
-261 10 -385 4 -124 8 -295 11 -380 12 -434 14 -520 19 -695 3 -104 7 -245 9
-313 4 -92 2 -120 -7 -115 -7 4 -15 8 -19 9 -5 1 -10 3 -13 4 -3 1 -8 3 -12 5
-5 1 -19 7 -33 12 -142 61 -247 105 -255 107 -5 1 -32 12 -59 24 -27 12 -51
22 -53 22 -5 0 -35 13 -118 50 -27 13 -56 23 -62 23 -7 0 -13 4 -13 9 0 4 -7
8 -16 8 -9 0 -39 12 -68 26 -28 14 -53 26 -56 26 -8 1 -33 10 -70 26 -19 8
-37 16 -40 17 -3 1 -18 7 -33 13 -16 7 -30 12 -32 12 -3 0 -28 11 -57 24 -84
38 -213 90 -216 88 -1 -2 -15 4 -30 12 -33 17 -78 37 -152 66 -30 12 -71 28
-90 37 -50 22 -89 39 -132 57 -33 13 -38 19 -38 48 0 18 -2 85 -5 148 -2 63
-7 300 -10 525 l-5 410 187 2 c218 3 272 7 368 27 127 28 180 49 275 111 181
117 301 304 355 550 12 50 14 306 4 370 -53 341 -279 569 -624 630 -55 9 -273
24 -278 18z"/>
</g>
</svg>
